<svg width="14" height="10" viewBox="0 0 14 10" fill="none" xmlns="http://www.w3.org/2000/svg">
<g clip-path="url(#clip0_2107_1545)">
<path d="M5.22109 10.0008C5.06413 9.99976 4.91396 9.93239 4.80346 9.81346L0.17397 4.87675C0.0625788 4.75791 -1.65985e-09 4.59672 0 4.42865C1.65985e-09 4.26058 0.0625788 4.09939 0.17397 3.98055C0.285361 3.8617 0.436439 3.79494 0.59397 3.79494C0.7515 3.79494 0.902579 3.8617 1.01397 3.98055L5.22109 8.47169L12.9875 0.18561C13.0989 0.0667658 13.25 0 13.4075 0C13.5651 0 13.7161 0.0667658 13.8275 0.18561C13.9389 0.304453 14.0015 0.46564 14.0015 0.633711C14.0015 0.801781 13.9389 0.962968 13.8275 1.08181L5.64109 9.81346C5.58609 9.87265 5.52068 9.91967 5.4486 9.95182C5.37653 9.98397 5.29921 10.0006 5.22109 10.0008Z" fill="white"/>
</g>
<defs>
<clipPath id="clip0_2107_1545">
<rect width="14" height="10" fill="white"/>
</clipPath>
</defs>
</svg>
