<svg width="24" height="24" viewBox="0 0 24 24" fill="none" xmlns="http://www.w3.org/2000/svg">
<rect width="24" height="24" rx="5" fill="#6B63F6"/>
<path d="M10.2211 16.9988C10.0641 16.9978 9.91396 16.9304 9.80346 16.8115L5.17397 11.8748C5.06258 11.756 5 11.5948 5 11.4267C5 11.2586 5.06258 11.0974 5.17397 10.9786C5.28536 10.8597 5.43644 10.793 5.59397 10.793C5.7515 10.793 5.90258 10.8597 6.01397 10.9786L10.2211 15.4697L17.9875 7.18366C18.0989 7.06481 18.25 6.99805 18.4075 6.99805C18.5651 6.99805 18.7161 7.06481 18.8275 7.18366C18.9389 7.3025 19.0015 7.46369 19.0015 7.63176C19.0015 7.79983 18.9389 7.96102 18.8275 8.07986L10.6411 16.8115C10.5861 16.8707 10.5207 16.9177 10.4486 16.9499C10.3765 16.982 10.2992 16.9987 10.2211 16.9988Z" fill="white"/>
</svg>
