<svg width="29" height="29" viewBox="0 0 29 29" fill="none" xmlns="http://www.w3.org/2000/svg">
<path d="M14.5 29C11.6322 29 8.82875 28.1496 6.44424 26.5563C4.05973 24.963 2.20122 22.6984 1.10375 20.0489C0.00628261 17.3994 -0.280866 14.4839 0.27862 11.6712C0.838106 8.85847 2.2191 6.27482 4.24696 4.24696C6.27482 2.2191 8.85847 0.838106 11.6712 0.27862C14.4839 -0.280866 17.3994 0.00628261 20.0489 1.10375C22.6984 2.20122 24.963 4.05973 26.5563 6.44424C28.1496 8.82875 29 11.6322 29 14.5C28.9961 18.3444 27.4672 22.0303 24.7487 24.7487C22.0303 27.4672 18.3444 28.9961 14.5 29V29ZM14.5 2.45763C12.1182 2.45763 9.78998 3.16391 7.80962 4.48714C5.82926 5.81037 4.28576 7.69113 3.3743 9.89159C2.46285 12.092 2.22437 14.5134 2.68902 16.8494C3.15368 19.1853 4.30061 21.3311 5.98476 23.0152C7.66892 24.6994 9.81466 25.8463 12.1507 26.311C14.4866 26.7756 16.908 26.5372 19.1084 25.6257C21.3089 24.7142 23.1896 23.1707 24.5129 21.1904C25.8361 19.21 26.5424 16.8818 26.5424 14.5C26.5385 11.3074 25.2685 8.24661 23.0109 5.98907C20.7534 3.73154 17.6926 2.46154 14.5 2.45763V2.45763Z" fill="#454545"/>
<path d="M18.329 20.5209C18.1072 20.5228 17.8886 20.4669 17.6949 20.3587L13.866 18.1468C13.6831 18.0356 13.5322 17.8788 13.428 17.6919C13.3238 17.505 13.2697 17.2942 13.2712 17.0802V9.70733C13.2712 9.38143 13.4007 9.06887 13.6311 8.83843C13.8616 8.60798 14.1741 8.47852 14.5 8.47852C14.8259 8.47852 15.1385 8.60798 15.3689 8.83843C15.5994 9.06887 15.7288 9.38143 15.7288 9.70733V16.3724L18.9434 18.2255C19.1789 18.3602 19.3632 18.569 19.4675 18.8194C19.5719 19.0698 19.5904 19.3477 19.5203 19.6098C19.4501 19.8719 19.2952 20.1033 19.0797 20.2682C18.8643 20.433 18.6003 20.5218 18.329 20.5209V20.5209Z" fill="#454545"/>
</svg>
