<svg width="22" height="22" viewBox="0 0 22 22" fill="none" xmlns="http://www.w3.org/2000/svg">
<g clip-path="url(#clip0_2107_2098)">
<path d="M0.999969 22.0013C0.868527 22.0017 0.738295 21.9761 0.616782 21.926C0.495268 21.8759 0.384876 21.8022 0.291969 21.7093C0.10583 21.5206 0.00146484 21.2663 0.00146484 21.0013C0.00146484 20.7362 0.10583 20.4819 0.291969 20.2933L20.292 0.293263C20.4797 0.10549 20.7344 0 21 0C21.2655 0 21.5202 0.10549 21.708 0.293263C21.8957 0.481036 22.0012 0.735712 22.0012 1.00126C22.0012 1.26681 21.8957 1.52149 21.708 1.70926L1.70797 21.7093C1.61506 21.8022 1.50467 21.8759 1.38316 21.926C1.26164 21.9761 1.13141 22.0017 0.999969 22.0013V22.0013Z" fill="#AAAAAA"/>
<path d="M20.9998 22.0013C20.8684 22.0017 20.7381 21.9761 20.6166 21.926C20.4951 21.8759 20.3847 21.8022 20.2918 21.7093L0.291798 1.70926C0.104025 1.52149 -0.00146485 1.26681 -0.00146484 1.00126C-0.00146484 0.735712 0.104025 0.481036 0.291798 0.293263C0.479572 0.10549 0.734247 1.97851e-09 0.999798 0C1.26535 -1.97851e-09 1.52003 0.10549 1.7078 0.293263L21.7078 20.2933C21.8939 20.4819 21.9983 20.7362 21.9983 21.0013C21.9983 21.2663 21.8939 21.5206 21.7078 21.7093C21.6149 21.8022 21.5045 21.8759 21.383 21.926C21.2615 21.9761 21.1312 22.0017 20.9998 22.0013V22.0013Z" fill="#AAAAAA"/>
</g>
<defs>
<clipPath id="clip0_2107_2098">
<rect width="22" height="22" fill="white"/>
</clipPath>
</defs>
</svg>
