<svg width="24" height="24" viewBox="0 0 24 24" fill="none" xmlns="http://www.w3.org/2000/svg">
<rect width="24" height="24" fill="transparent"/>
<rect width="24" height="24" fill="transparent"/>
<path d="M2.83973 13.0612C2.67382 13.0595 2.51204 13.0083 2.37442 12.9138C2.2368 12.8194 2.12938 12.686 2.06547 12.53C2.00155 12.374 1.98394 12.2023 2.01482 12.0362C2.0457 11.8702 2.12371 11.7169 2.2392 11.5956L11.3998 2.2627C11.5552 2.09976 11.7672 2.00543 11.9901 2V2C12.2152 1.99997 12.4311 2.09069 12.5907 2.25233L21.7513 11.5852C21.9105 11.7475 22 11.9675 22 12.197C22 12.4265 21.9105 12.6466 21.7513 12.8088C21.592 12.9711 21.376 13.0623 21.1507 13.0623C20.9255 13.0623 20.7095 12.9711 20.5502 12.8088L11.9901 4.07397L3.44025 12.8158C3.27977 12.9752 3.06387 13.0634 2.83973 13.0612V13.0612Z" fill="#6B63F6"/>
<path d="M16.0874 22.0001H7.91072C6.96915 21.9964 6.06738 21.6128 5.40286 20.9332C4.73834 20.2536 4.36523 19.3334 4.36523 18.3741V9.80165C4.36523 9.57247 4.4546 9.35267 4.61367 9.19061C4.77274 9.02854 4.98848 8.9375 5.21344 8.9375C5.43839 8.9375 5.65414 9.02854 5.81321 9.19061C5.97228 9.35267 6.06164 9.57247 6.06164 9.80165V18.3741C6.06164 18.8774 6.25788 19.3601 6.6072 19.7159C6.78016 19.8922 6.9855 20.0319 7.21149 20.1273C7.43747 20.2227 7.67969 20.2718 7.92429 20.2718H16.101C16.5903 20.2645 17.0571 20.0614 17.4005 19.7063C17.744 19.3512 17.9365 18.8726 17.9365 18.3741V9.80165C17.9365 9.57247 18.0258 9.35267 18.1849 9.19061C18.344 9.02854 18.5597 8.9375 18.7847 8.9375C19.0096 8.9375 19.2254 9.02854 19.3844 9.19061C19.5435 9.35267 19.6329 9.57247 19.6329 9.80165V18.3741C19.6329 19.3334 19.2598 20.2536 18.5953 20.9332C17.9307 21.6128 17.029 21.9964 16.0874 22.0001V22.0001Z" fill="#6B63F6"/>
<path d="M14.3735 18.8888H9.6236C9.51209 18.8892 9.40159 18.8672 9.29848 18.8239C9.19537 18.7807 9.10168 18.717 9.02283 18.6367C8.94398 18.5564 8.88152 18.4609 8.83905 18.3559C8.79658 18.2508 8.77495 18.1382 8.7754 18.0246V15.6568C8.7754 14.7859 9.11498 13.9507 9.71944 13.3348C10.3239 12.719 11.1437 12.373 11.9986 12.373C12.8534 12.373 13.6732 12.719 14.2777 13.3348C14.8822 13.9507 15.2217 14.7859 15.2217 15.6568V18.0246C15.2222 18.1382 15.2006 18.2508 15.1581 18.3559C15.1156 18.4609 15.0532 18.5564 14.9743 18.6367C14.8955 18.717 14.8018 18.7807 14.6987 18.8239C14.5955 18.8672 14.485 18.8892 14.3735 18.8888V18.8888ZM10.4718 17.1605H13.5253V15.6568C13.5253 15.2443 13.3645 14.8487 13.0782 14.5569C12.7918 14.2652 12.4035 14.1014 11.9986 14.1014C11.5936 14.1014 11.2053 14.2652 10.919 14.5569C10.6327 14.8487 10.4718 15.2443 10.4718 15.6568V17.1605Z" fill="#6B63F6"/>
</svg>
