<svg width="20" height="20" viewBox="0 0 20 20" fill="none" xmlns="http://www.w3.org/2000/svg">
<circle cx="10" cy="10" r="10" fill="#6B63F6"/>
<path fill-rule="evenodd" clip-rule="evenodd" d="M10.2308 6.38462C10.6131 6.38462 10.9231 6.07466 10.9231 5.69231C10.9231 5.30996 10.6131 5 10.2308 5C9.84842 5 9.53846 5.30996 9.53846 5.69231C9.53846 6.07466 9.84842 6.38462 10.2308 6.38462ZM15.7692 7.76923C16.1516 7.76923 16.4615 7.45927 16.4615 7.07692C16.4615 6.69457 16.1516 6.38462 15.7692 6.38462C15.3869 6.38462 15.0769 6.69457 15.0769 7.07692C15.0769 7.45927 15.3869 7.76923 15.7692 7.76923ZM5.38462 7.07692C5.38462 7.45927 5.07466 7.76923 4.69231 7.76923C4.30996 7.76923 4 7.45927 4 7.07692C4 6.69457 4.30996 6.38462 4.69231 6.38462C5.07466 6.38462 5.38462 6.69457 5.38462 7.07692ZM7.12961 14H13.3319C13.5471 14 13.7382 13.8623 13.8063 13.6581L15.3418 9.0515C15.4886 8.61112 15.0083 8.22581 14.6102 8.46464L12.7364 9.58891C12.4996 9.73098 12.1925 9.6542 12.0504 9.41741L10.6595 7.09919C10.4653 6.77552 9.99622 6.77552 9.80202 7.09919L8.41109 9.41741C8.26902 9.6542 7.96189 9.73098 7.7251 9.58891L5.85132 8.46464C5.45327 8.22581 4.97294 8.61112 5.11973 9.0515L6.65527 13.6581C6.72333 13.8623 6.9144 14 7.12961 14Z" fill="#FFCE51"/>
</svg>
