<svg width="38" height="38" viewBox="0 0 38 38" fill="none" xmlns="http://www.w3.org/2000/svg">
<circle cx="18.8989" cy="18.8989" r="18.8989" fill="white" fill-opacity="0.5"/>
<path d="M20.5529 24.8047C20.4597 24.805 20.3674 24.7882 20.2813 24.7553C20.1952 24.7224 20.1169 24.6741 20.0511 24.6131L14.3809 19.3634C14.249 19.2397 14.175 19.0728 14.175 18.8988C14.175 18.7249 14.249 18.558 14.3809 18.4343L20.0511 13.1846C20.1842 13.0614 20.3647 12.9922 20.5529 12.9922C20.7411 12.9922 20.9216 13.0614 21.0547 13.1846C21.1878 13.3078 21.2625 13.475 21.2625 13.6492C21.2625 13.8235 21.1878 13.9906 21.0547 14.1138L15.875 18.8988L21.0547 23.6839C21.1866 23.8077 21.2606 23.9746 21.2606 24.1485C21.2606 24.3224 21.1866 24.4893 21.0547 24.6131C20.9888 24.6741 20.9106 24.7224 20.8245 24.7553C20.7384 24.7882 20.646 24.805 20.5529 24.8047V24.8047Z" fill="#454545"/>
</svg>
