<svg width="17" height="22" viewBox="0 0 17 22" fill="none" xmlns="http://www.w3.org/2000/svg">
<path d="M9.25536 14.5421H7.74425C7.49377 14.5421 7.25354 14.4439 7.07643 14.2691C6.89931 14.0943 6.7998 13.8572 6.7998 13.6099C6.7998 13.3627 6.89931 13.1256 7.07643 12.9508C7.25354 12.7759 7.49377 12.6777 7.74425 12.6777H9.25536C9.50584 12.6777 9.74607 12.7759 9.92318 12.9508C10.1003 13.1256 10.1998 13.3627 10.1998 13.6099C10.1998 13.8572 10.1003 14.0943 9.92318 14.2691C9.74607 14.4439 9.50584 14.5421 9.25536 14.5421Z" fill="white"/>
<path d="M13.0333 21.9992H3.96667C2.91495 21.9983 1.90659 21.5854 1.16291 20.8514C0.419237 20.1174 0.00100021 19.1221 0 18.084L0 9.50771C0.000999153 8.8652 0.26003 8.24929 0.720319 7.79497C1.18061 7.34064 1.80461 7.08497 2.45556 7.08398H14.5444C15.1954 7.08497 15.8194 7.34064 16.2797 7.79497C16.74 8.24929 16.999 8.8652 17 9.50771V18.084C16.999 19.1221 16.5808 20.1174 15.8371 20.8514C15.0934 21.5854 14.0851 21.9983 13.0333 21.9992V21.9992ZM2.45556 8.94839C2.30527 8.94839 2.16113 9.00732 2.05486 9.11221C1.94859 9.21711 1.88889 9.35937 1.88889 9.50771V18.084C1.88989 18.6276 2.10912 19.1487 2.49856 19.5331C2.888 19.9175 3.41591 20.1338 3.96667 20.1348H13.0333C13.5841 20.1338 14.112 19.9175 14.5014 19.5331C14.8909 19.1487 15.1101 18.6276 15.1111 18.084V9.50771C15.1111 9.35937 15.0514 9.21711 14.9451 9.11221C14.8389 9.00732 14.6947 8.94839 14.5444 8.94839H2.45556Z" fill="white"/>
<path d="M13.0336 8.94915C12.9095 8.94915 12.7867 8.92504 12.6721 8.87819C12.5576 8.83135 12.4534 8.76268 12.3657 8.67612C12.278 8.58955 12.2085 8.48679 12.161 8.37369C12.1136 8.26059 12.0891 8.13937 12.0891 8.01695V3.91525C12.0881 3.37164 11.8689 2.85057 11.4795 2.46617C11.09 2.08178 10.5621 1.86539 10.0113 1.86441H6.98913C6.43837 1.86539 5.91046 2.08178 5.52102 2.46617C5.13158 2.85057 4.91235 3.37164 4.91135 3.91525C4.91135 4.16249 4.81185 4.3996 4.63473 4.57442C4.45761 4.74924 4.21739 4.84746 3.96691 4.84746C3.71642 4.84746 3.4762 4.74924 3.29908 4.57442C3.12196 4.3996 3.02246 4.16249 3.02246 3.91525C3.02346 2.87717 3.4417 1.88188 4.18538 1.14784C4.92905 0.413803 5.93741 0.000987245 6.98913 0L10.0113 0C11.0631 0.000987245 12.0714 0.413803 12.8151 1.14784C13.5588 1.88188 13.977 2.87717 13.978 3.91525V8.01695C13.978 8.13937 13.9536 8.26059 13.9061 8.37369C13.8587 8.48679 13.7891 8.58955 13.7014 8.67612C13.6137 8.76268 13.5096 8.83135 13.395 8.87819C13.2804 8.92504 13.1576 8.94915 13.0336 8.94915V8.94915Z" fill="white"/>
<path d="M8.50011 17.5252C8.24963 17.5252 8.0094 17.427 7.83229 17.2522C7.65517 17.0773 7.55566 16.8402 7.55566 16.593V13.6099C7.55566 13.3627 7.65517 13.1256 7.83229 12.9508C8.0094 12.7759 8.24963 12.6777 8.50011 12.6777C8.75059 12.6777 8.99081 12.7759 9.16793 12.9508C9.34505 13.1256 9.44455 13.3627 9.44455 13.6099V16.593C9.44455 16.8402 9.34505 17.0773 9.16793 17.2522C8.99081 17.427 8.75059 17.5252 8.50011 17.5252Z" fill="white"/>
</svg>
