<svg width="18" height="24" viewBox="0 0 18 24" fill="none" xmlns="http://www.w3.org/2000/svg">
<path d="M13.8 23.9997H4.2C3.08642 23.9986 2.01874 23.5483 1.23132 22.7475C0.443898 21.9467 0.00105904 20.861 0 19.7285L0 10.3726C0.00105793 9.67166 0.275325 8.99976 0.762691 8.50413C1.25006 8.00851 1.91076 7.72959 2.6 7.72852H15.4C16.0892 7.72959 16.7499 8.00851 17.2373 8.50413C17.7247 8.99976 17.9989 9.67166 18 10.3726V19.7285C17.9989 20.861 17.5561 21.9467 16.7687 22.7475C15.9813 23.5483 14.9136 23.9986 13.8 23.9997V23.9997ZM2.6 9.76241C2.44087 9.76241 2.28826 9.8267 2.17574 9.94113C2.06321 10.0556 2 10.2108 2 10.3726V19.7285C2.00106 20.3216 2.23318 20.89 2.64553 21.3093C3.05788 21.7287 3.61685 21.9647 4.2 21.9658H13.8C14.3832 21.9647 14.9421 21.7287 15.3545 21.3093C15.7668 20.89 15.9989 20.3216 16 19.7285V10.3726C16 10.2108 15.9368 10.0556 15.8243 9.94113C15.7117 9.8267 15.5591 9.76241 15.4 9.76241H2.6Z" fill="white"/>
<path d="M13.8002 9.76271H4.2002C4.06887 9.76271 3.93884 9.73641 3.81751 9.6853C3.69619 9.63419 3.58595 9.55929 3.49309 9.46485C3.40023 9.37042 3.32657 9.25831 3.27632 9.13493C3.22606 9.01155 3.2002 8.87931 3.2002 8.74576V4.27119C3.20125 3.13873 3.64409 2.05296 4.43152 1.25219C5.21894 0.451421 6.28661 0.00107699 7.4002 0L10.6002 0C11.7138 0.00107699 12.7815 0.451421 13.5689 1.25219C14.3563 2.05296 14.7991 3.13873 14.8002 4.27119V8.74576C14.8002 8.87931 14.7743 9.01155 14.7241 9.13493C14.6738 9.25831 14.6002 9.37042 14.5073 9.46485C14.4144 9.55929 14.3042 9.63419 14.1829 9.6853C14.0616 9.73641 13.9315 9.76271 13.8002 9.76271V9.76271ZM5.2002 7.72881H12.8002V4.27119C12.7991 3.67815 12.567 3.10971 12.1547 2.69037C11.7423 2.27103 11.1833 2.03497 10.6002 2.0339H7.4002C6.81704 2.03497 6.25808 2.27103 5.84573 2.69037C5.43338 3.10971 5.20125 3.67815 5.2002 4.27119V7.72881Z" fill="white"/>
<path d="M9 19.1182C8.73478 19.1182 8.48043 19.0111 8.29289 18.8204C8.10536 18.6296 8 18.371 8 18.1013V14.847C8 14.5773 8.10536 14.3186 8.29289 14.1279C8.48043 13.9372 8.73478 13.8301 9 13.8301C9.26522 13.8301 9.51957 13.9372 9.70711 14.1279C9.89464 14.3186 10 14.5773 10 14.847V18.1013C10 18.371 9.89464 18.6296 9.70711 18.8204C9.51957 19.0111 9.26522 19.1182 9 19.1182Z" fill="white"/>
<path d="M9.8002 15.864H8.2002C7.93498 15.864 7.68062 15.7568 7.49309 15.5661C7.30555 15.3754 7.2002 15.1167 7.2002 14.847C7.2002 14.5773 7.30555 14.3186 7.49309 14.1279C7.68062 13.9372 7.93498 13.8301 8.2002 13.8301H9.8002C10.0654 13.8301 10.3198 13.9372 10.5073 14.1279C10.6948 14.3186 10.8002 14.5773 10.8002 14.847C10.8002 15.1167 10.6948 15.3754 10.5073 15.5661C10.3198 15.7568 10.0654 15.864 9.8002 15.864Z" fill="white"/>
</svg>
