<svg width="144" height="28" viewBox="0 0 144 28" fill="none" xmlns="http://www.w3.org/2000/svg">
<g clip-path="url(#clip0_704_606)">
<rect width="144" height="28" fill="white"/>
<path d="M65.6388 10.392V8.736H56.5428V10.392H65.6388ZM51.2628 2.904H56.5428V5.064H65.6388V2.904H70.9428V14.064H54.1188L51.2628 11.424V2.904ZM72.1428 15.264V18.984H68.2548V24.888H63.0228V18.984H59.9988V24.888H54.7428V18.984H50.0388V15.264H72.1428ZM74.6997 3H94.5717V6.744H79.9317V8.88H94.4037V12.6H79.9317V14.928H94.8597V18.624H77.5557L74.6997 15.984V3ZM95.5797 21.192V24.912H73.4997V21.192H95.5797ZM97.3686 2.952H107.617V5.976C107.617 8.296 106.817 10.304 105.217 12C103.633 13.68 101.553 14.792 98.9766 15.336L96.5526 12.408C97.7846 12.104 98.8966 11.624 99.8886 10.968H97.3686V7.416H102.409C102.425 7.288 102.433 7.16 102.433 7.032C102.449 6.904 102.457 6.776 102.457 6.648H97.3686V2.952ZM108.265 2.928H113.065V6.768H113.761V2.928H118.561V15.096H113.761V10.776H113.065V15.096H108.265V2.928ZM113.305 21.24V19.368H104.737V21.24H113.305ZM99.5046 15.624H118.561V24.984H102.625L99.5046 22.104V15.624ZM121.31 6.744V3H141.518V6.744H121.31ZM121.094 13.344H124.334L124.118 7.44H129.374L129.59 13.344H133.694L133.958 7.44H139.19L138.926 13.344H141.758V17.064H123.95L121.094 14.424V13.344ZM142.502 21.192V24.912H120.422V21.192H142.502Z" fill="#6B63F6"/>
<path d="M25.1958 28H11.8099C11.0179 28 10.258 27.6868 9.69603 27.1287L0.886084 18.3799C0.318947 17.8167 0 17.0505 0 16.2512V3C0 1.34315 1.34315 0 3 0H25.1958C26.8527 0 28.1958 1.34315 28.1958 3V25C28.1958 26.6569 26.8527 28 25.1958 28Z" fill="#6B63F6"/>
<path d="M29.2028 16.8462L29.2028 11.1538C29.2028 10.7938 29.3963 10.4617 29.7093 10.284L35.7653 6.84752C36.4319 6.46923 37.2588 6.95075 37.2588 7.71725L37.2588 20.2828C37.2588 21.0492 36.4319 21.5308 35.7653 21.1525L29.7093 17.716C29.3963 17.5383 29.2028 17.2062 29.2028 16.8462Z" fill="#6B63F6"/>
</g>
<defs>
<clipPath id="clip0_704_606">
<rect width="144" height="28" fill="white"/>
</clipPath>
</defs>
</svg>
