<svg width="20" height="23" viewBox="0 0 20 23" fill="none" xmlns="http://www.w3.org/2000/svg">
<path d="M15.9615 23H4.03846C2.96771 22.999 1.9411 22.5674 1.18396 21.8C0.426825 21.0326 0.00101831 19.9921 0 18.9068L0 15.3983C0 15.1398 0.101305 14.8919 0.281628 14.7092C0.461952 14.5264 0.706523 14.4237 0.961538 14.4237C1.21655 14.4237 1.46113 14.5264 1.64145 14.7092C1.82177 14.8919 1.92308 15.1398 1.92308 15.3983V18.9068C1.92409 19.4751 2.14729 20.0199 2.54378 20.4217C2.94027 20.8236 3.47774 21.0498 4.03846 21.0508H15.9615C16.5223 21.0498 17.0597 20.8236 17.4562 20.4217C17.8527 20.0199 18.0759 19.4751 18.0769 18.9068V4.09322C18.0759 3.52489 17.8527 2.98014 17.4562 2.57827C17.0597 2.17641 16.5223 1.95018 15.9615 1.94915H4.03846C3.47774 1.95018 2.94027 2.17641 2.54378 2.57827C2.14729 2.98014 1.92409 3.52489 1.92308 4.09322V7.60169C1.92308 7.86017 1.82177 8.10806 1.64145 8.29082C1.46113 8.47359 1.21655 8.57627 0.961538 8.57627C0.706523 8.57627 0.461952 8.47359 0.281628 8.29082C0.101305 8.10806 0 7.86017 0 7.60169L0 4.09322C0.00101831 3.00795 0.426825 1.96742 1.18396 1.20002C1.9411 0.432612 2.96771 0.00103212 4.03846 0L15.9615 0C17.0323 0.00103212 18.0589 0.432612 18.816 1.20002C19.5732 1.96742 19.999 3.00795 20 4.09322V18.9068C19.999 19.9921 19.5732 21.0326 18.816 21.8C18.0589 22.5674 17.0323 22.999 15.9615 23Z" fill="white"/>
<path d="M13.4615 12.4745H0.961538C0.706523 12.4745 0.461952 12.3719 0.281628 12.1891C0.101305 12.0063 0 11.7584 0 11.5C0 11.2415 0.101305 10.9936 0.281628 10.8108C0.461952 10.6281 0.706523 10.5254 0.961538 10.5254H13.4615C13.7166 10.5254 13.9611 10.6281 14.1414 10.8108C14.3218 10.9936 14.4231 11.2415 14.4231 11.5C14.4231 11.7584 14.3218 12.0063 14.1414 12.1891C13.9611 12.3719 13.7166 12.4745 13.4615 12.4745Z" fill="white"/>
<path d="M8.84654 17.152C8.72016 17.1525 8.59493 17.1275 8.47809 17.0787C8.36125 17.0299 8.25511 16.9581 8.16577 16.8674C7.98679 16.6836 7.88644 16.4357 7.88644 16.1774C7.88644 15.9192 7.98679 15.6713 8.16577 15.4874L12.1004 11.4995L8.16577 7.51151C7.98522 7.32851 7.88379 7.08031 7.88379 6.82151C7.88379 6.56271 7.98522 6.31451 8.16577 6.13151C8.34632 5.94851 8.5912 5.8457 8.84654 5.8457C9.10188 5.8457 9.34676 5.94851 9.52731 6.13151L14.1427 10.8095C14.3217 10.9933 14.422 11.2412 14.422 11.4995C14.422 11.7578 14.3217 12.0056 14.1427 12.1895L9.52731 16.8674C9.43798 16.9581 9.33183 17.0299 9.21499 17.0787C9.09815 17.1275 8.97293 17.1525 8.84654 17.152Z" fill="white"/>
</svg>
