<svg width="60" height="60" viewBox="0 0 60 60" fill="none" xmlns="http://www.w3.org/2000/svg">
<g clip-path="url(#clip0_782_348)">
<rect width="60" height="60" fill="transparent"/>
<ellipse rx="30" ry="30" transform="matrix(1 -8.74228e-08 -8.74228e-08 -1 30 30)" fill="black" fill-opacity="0.6"/>
<path d="M33.9622 17.1732L21.1648 29.6139C21.0559 29.7221 21 29.8616 21 30.001C21 30.1403 21.0559 30.2798 21.1648 30.3881C21.1654 30.3887 21.166 30.3893 21.1666 30.3899L33.9622 42.8288L33.9624 42.8291C34.0166 42.8817 34.0825 42.9249 34.157 42.9548C34.2315 42.9847 34.3124 43.0003 34.3946 43L34.3979 44L34.4013 43C34.4835 43.0003 34.5644 42.9847 34.6389 42.9548C34.7124 42.9253 34.7775 42.8829 34.8312 42.8313C34.9398 42.7231 34.9956 42.5838 34.9956 42.4445C34.9956 42.3053 34.9398 42.166 34.8311 42.0578L23.1414 30.7188L22.4014 30.001L23.1414 29.2832L34.8337 17.9416C34.8338 17.9416 34.8339 17.9415 34.834 17.9414C34.9437 17.8346 35 17.6959 35 17.5574C35 17.4188 34.9436 17.28 34.8337 17.1732C34.7228 17.0654 34.5666 17 34.3979 17C34.2293 17 34.073 17.0654 33.9622 17.1732Z" fill="white" stroke="white" stroke-width="2"/>
</g>
<defs>
<clipPath id="clip0_782_348">
<rect width="60" height="60" fill="transparent"/>
</clipPath>
</defs>
</svg>
