<svg width="29" height="30" viewBox="0 0 29 30" fill="none" xmlns="http://www.w3.org/2000/svg">
<g clip-path="url(#clip0_2107_4081)">
<path fill-rule="evenodd" clip-rule="evenodd" d="M6.56445 8.12891C6.56445 5.1949 8.94294 2.81641 11.877 2.81641C14.811 2.81641 17.1895 5.1949 17.1895 8.12891C17.1895 11.0629 14.811 13.4414 11.877 13.4414C8.94294 13.4414 6.56445 11.0629 6.56445 8.12891ZM11.877 4.69141C9.97847 4.69141 8.43945 6.23043 8.43945 8.12891C8.43945 10.0274 9.97847 11.5664 11.877 11.5664C13.7754 11.5664 15.3145 10.0274 15.3145 8.12891C15.3145 6.23043 13.7754 4.69141 11.877 4.69141Z" fill="#6B63F6"/>
<path fill-rule="evenodd" clip-rule="evenodd" d="M23.0871 8.08904C23.4532 7.72292 24.0468 7.72292 24.4129 8.08904L28.1629 11.839C28.529 12.2052 28.529 12.7987 28.1629 13.1649C27.7968 13.531 27.2032 13.531 26.8371 13.1649L23.75 10.0778L20.6629 13.1649C20.2968 13.531 19.7032 13.531 19.3371 13.1649C18.971 12.7987 18.971 12.2052 19.3371 11.839L23.0871 8.08904Z" fill="#6B63F6"/>
<path fill-rule="evenodd" clip-rule="evenodd" d="M10.4588 16.5566H13.2912C14.6564 16.5566 15.7383 16.5566 16.6103 16.6279C17.502 16.7007 18.2566 16.8527 18.9455 17.2038C20.0627 17.773 20.9711 18.6814 21.5404 19.7986C21.8914 20.4875 22.0434 21.2421 22.1163 22.1338C22.1875 23.0058 22.1875 24.0877 22.1875 25.4529V26.2441C22.1875 26.7619 21.7678 27.1816 21.25 27.1816H2.5C1.98223 27.1816 1.5625 26.7619 1.5625 26.2441L1.5625 25.4529C1.56249 24.0877 1.56249 23.0058 1.63373 22.1338C1.70659 21.2421 1.8586 20.4876 2.20965 19.7986C2.77889 18.6814 3.68721 17.773 4.80443 17.2038C5.4934 16.8527 6.24795 16.7007 7.13968 16.6279C8.01171 16.5566 9.09358 16.5566 10.4588 16.5566ZM5.65564 18.8744C4.89125 19.2639 4.26977 19.8854 3.88029 20.6498C3.68637 21.0304 3.56589 21.5107 3.50251 22.2865C3.4411 23.038 3.43769 23.9891 3.43751 25.3066H20.3125C20.3123 23.9891 20.3089 23.038 20.2475 22.2865C20.1841 21.5107 20.0637 21.0304 19.8697 20.6498C19.4803 19.8854 18.8587 19.2639 18.0943 18.8744M5.65564 18.8744C6.03624 18.6805 6.51659 18.56 7.29236 18.4966C8.07909 18.4324 9.08441 18.4316 10.5 18.4316H13.25C14.6656 18.4316 15.6709 18.4324 16.4576 18.4966C17.2334 18.56 17.7137 18.6805 18.0943 18.8744" fill="#6B63F6"/>
</g>
<defs>
<clipPath id="clip0_2107_4081">
<rect width="29" height="30" fill="white"/>
</clipPath>
</defs>
</svg>
