<svg width="38" height="38" viewBox="0 0 38 38" fill="none" xmlns="http://www.w3.org/2000/svg">
<ellipse cx="18.899" cy="18.899" rx="18.8989" ry="18.8989" transform="rotate(-180 18.899 18.899)" fill="white" fill-opacity="0.5"/>
<path d="M17.3796 24.8047C17.2864 24.805 17.1941 24.7882 17.108 24.7553C17.0219 24.7224 16.9436 24.6741 16.8778 24.6131C16.7458 24.4893 16.6719 24.3224 16.6719 24.1485C16.6719 23.9746 16.7458 23.8077 16.8778 23.6839L22.0574 18.8988L16.8778 14.1138C16.7447 13.9906 16.6699 13.8235 16.6699 13.6492C16.6699 13.475 16.7447 13.3078 16.8778 13.1846C17.0109 13.0614 17.1914 12.9922 17.3796 12.9922C17.5678 12.9922 17.7483 13.0614 17.8814 13.1846L23.5515 18.4343C23.6835 18.558 23.7574 18.7249 23.7574 18.8988C23.7574 19.0728 23.6835 19.2397 23.5515 19.3634L17.8814 24.6131C17.8155 24.6741 17.7373 24.7224 17.6512 24.7553C17.565 24.7882 17.4727 24.805 17.3796 24.8047V24.8047Z" fill="#454545"/>
</svg>
