<svg width="60" height="60" viewBox="0 0 60 60" fill="none" xmlns="http://www.w3.org/2000/svg">
<ellipse cx="30" cy="30" rx="30" ry="30" transform="rotate(-180 30 30)" fill="black" fill-opacity="0.6"/>
<path d="M26.0378 17.1732L38.8352 29.6139C38.9441 29.7221 39 29.8616 39 30.001C39 30.1403 38.9441 30.2798 38.8352 30.3881C38.8346 30.3887 38.834 30.3893 38.8334 30.3899L26.0378 42.8288L26.0376 42.8291C25.9834 42.8817 25.9175 42.9249 25.843 42.9548C25.7685 42.9847 25.6876 43.0003 25.6054 43L25.6021 44L25.5987 43C25.5165 43.0003 25.4356 42.9847 25.3611 42.9548C25.2876 42.9253 25.2225 42.8829 25.1688 42.8313C25.0602 42.7231 25.0044 42.5838 25.0044 42.4445C25.0044 42.3053 25.0602 42.166 25.1689 42.0578L36.8586 30.7188L37.5986 30.001L36.8586 29.2832L25.1663 17.9416C25.1662 17.9416 25.1661 17.9415 25.166 17.9414C25.0563 17.8346 25 17.6959 25 17.5574C25 17.4188 25.0564 17.28 25.1663 17.1732C25.2772 17.0654 25.4334 17 25.6021 17C25.7707 17 25.927 17.0654 26.0378 17.1732Z" fill="white" stroke="white" stroke-width="2"/>
</svg>
