<svg width="24" height="24" viewBox="0 0 24 24" fill="none" xmlns="http://www.w3.org/2000/svg">
<path d="M9.55933 19.1186C7.66867 19.1186 5.82047 18.558 4.24845 17.5076C2.67643 16.4572 1.45119 14.9643 0.727664 13.2175C0.00414194 11.4708 -0.185165 9.54872 0.183684 7.6944C0.552533 5.84007 1.46297 4.13676 2.79986 2.79986C4.13676 1.46297 5.84007 0.552533 7.6944 0.183684C9.54872 -0.185165 11.4708 0.00414194 13.2175 0.727664C14.9643 1.45119 16.4572 2.67643 17.5076 4.24845C18.558 5.82047 19.1186 7.66867 19.1186 9.55933C19.1165 12.094 18.1087 14.5242 16.3164 16.3164C14.5242 18.1087 12.094 19.1165 9.55933 19.1186ZM9.55933 2.0339C8.07094 2.0339 6.61597 2.47526 5.37842 3.30217C4.14088 4.12907 3.17632 5.30438 2.60674 6.67947C2.03716 8.05456 1.88813 9.56767 2.1785 11.0275C2.46887 12.4873 3.1856 13.8282 4.23805 14.8806C5.2905 15.9331 6.6314 16.6498 8.09119 16.9402C9.55098 17.2305 11.0641 17.0815 12.4392 16.5119C13.8143 15.9423 14.9896 14.9778 15.8165 13.7402C16.6434 12.5027 17.0847 11.0477 17.0847 9.55933C17.0826 7.56412 16.2891 5.65125 14.8782 4.24043C13.4674 2.8296 11.5545 2.03606 9.55933 2.0339Z" fill="#BCBCBC"/>
<path d="M22.9828 24.0003C22.8492 24.0007 22.7167 23.9747 22.5931 23.9238C22.4696 23.8728 22.3573 23.7979 22.2628 23.7033L14.8798 16.3203C14.6888 16.1293 14.5815 15.8703 14.5815 15.6003C14.5815 15.3302 14.6888 15.0712 14.8798 14.8803C15.0707 14.6893 15.3297 14.582 15.5998 14.582C15.8698 14.582 16.1288 14.6893 16.3198 14.8803L23.7028 22.2633C23.8921 22.4551 23.9983 22.7138 23.9983 22.9833C23.9983 23.2528 23.8921 23.5115 23.7028 23.7033C23.6083 23.7979 23.4961 23.8728 23.3725 23.9238C23.2489 23.9747 23.1165 24.0007 22.9828 24.0003Z" fill="#BCBCBC"/>
</svg>
