<svg width="24" height="24" viewBox="0 0 24 24" fill="none" xmlns="http://www.w3.org/2000/svg">
<rect width="24" height="24" fill="transparent"/>
<rect width="24" height="24" fill="transparent"/>
<path fill-rule="evenodd" clip-rule="evenodd" d="M1.75 19C1.75 17.4812 2.98121 16.25 4.5 16.25C6.01876 16.25 7.25 17.4812 7.25 19C7.25 20.5188 6.01876 21.75 4.5 21.75C2.98121 21.75 1.75 20.5188 1.75 19ZM4.5 17.75C3.80965 17.75 3.25 18.3097 3.25 19C3.25 19.6903 3.80965 20.25 4.5 20.25C5.19034 20.25 5.75 19.6903 5.75 19C5.75 18.3097 5.19034 17.75 4.5 17.75Z" fill="#6B63F6"/>
<path fill-rule="evenodd" clip-rule="evenodd" d="M1.75 5C1.75 3.48122 2.98122 2.25 4.5 2.25C6.01876 2.25 7.25 3.48121 7.25 5C7.25 6.51883 6.01875 7.75 4.5 7.75C2.98122 7.75 1.75 6.51882 1.75 5ZM4.5 3.75C3.80964 3.75 3.25 4.30964 3.25 5C3.25 5.69038 3.80964 6.25 4.5 6.25C5.19035 6.25 5.75 5.69037 5.75 5C5.75 4.30965 5.19034 3.75 4.5 3.75Z" fill="#6B63F6"/>
<path fill-rule="evenodd" clip-rule="evenodd" d="M1.75 12C1.75 10.4812 2.98122 9.25 4.5 9.25C6.01875 9.25 7.25 10.4812 7.25 12C7.25 13.5188 6.01875 14.75 4.5 14.75C2.98122 14.75 1.75 13.5188 1.75 12ZM4.5 10.75C3.80964 10.75 3.25 11.3096 3.25 12C3.25 12.6904 3.80964 13.25 4.5 13.25C5.19035 13.25 5.75 12.6904 5.75 12C5.75 11.3096 5.19035 10.75 4.5 10.75Z" fill="#6B63F6"/>
<path fill-rule="evenodd" clip-rule="evenodd" d="M9.75 12C9.75 11.5858 10.0858 11.25 10.5 11.25H21.5C21.9142 11.25 22.25 11.5858 22.25 12C22.25 12.4142 21.9142 12.75 21.5 12.75H10.5C10.0858 12.75 9.75 12.4142 9.75 12Z" fill="#6B63F6"/>
<path fill-rule="evenodd" clip-rule="evenodd" d="M9.75 19C9.75 18.5858 10.0858 18.25 10.5 18.25H21.5C21.9142 18.25 22.25 18.5858 22.25 19C22.25 19.4142 21.9142 19.75 21.5 19.75H10.5C10.0858 19.75 9.75 19.4142 9.75 19Z" fill="#6B63F6"/>
<path fill-rule="evenodd" clip-rule="evenodd" d="M9.75 5C9.75 4.58579 10.0858 4.25 10.5 4.25H21.5C21.9142 4.25 22.25 4.58579 22.25 5C22.25 5.41421 21.9142 5.75 21.5 5.75H10.5C10.0858 5.75 9.75 5.41421 9.75 5Z" fill="#6B63F6"/>
</svg>
