<svg width="20" height="20" viewBox="0 0 20 20" fill="none" xmlns="http://www.w3.org/2000/svg">
<path fill-rule="evenodd" clip-rule="evenodd" d="M4.25476 4.25476C5.72439 2.7851 7.7565 1.875 9.99999 1.875C14.4873 1.875 18.125 5.5127 18.125 10C18.125 14.4873 14.4873 18.125 9.99999 18.125C7.75649 18.125 5.72438 17.2149 4.25475 15.7452C4.01068 15.5011 4.01068 15.1054 4.25477 14.8613C4.49885 14.6173 4.89457 14.6173 5.13865 14.8614C6.38343 16.1062 8.10132 16.875 9.99999 16.875C13.7969 16.875 16.875 13.7969 16.875 10C16.875 6.20305 13.7969 3.125 9.99999 3.125C8.10132 3.125 6.38343 3.89383 5.13865 5.13864C4.80563 5.47166 4.26629 6.0573 3.80223 6.56896C3.57197 6.82284 3.3631 7.05536 3.21176 7.22442C3.13612 7.30893 3.0749 7.37752 3.03265 7.42494L2.96756 7.49807L2.49999 7.08333L2.03268 6.66831L2.09944 6.5933C2.14224 6.54528 2.20407 6.47599 2.28039 6.39073C2.433 6.22024 2.64376 5.98562 2.87632 5.7292C3.33791 5.22027 3.89694 4.61258 4.25476 4.25476C4.25477 4.25476 4.25476 4.25477 4.25476 4.25476ZM2.085 7.55067C1.82689 7.32147 1.80349 6.92641 2.03268 6.66831L2.49999 7.08333L2.96756 7.49807C2.73837 7.75617 2.3431 7.77987 2.085 7.55067Z" fill="#898989"/>
<path fill-rule="evenodd" clip-rule="evenodd" d="M2.5 3.125C2.84518 3.125 3.125 3.40482 3.125 3.75V6.45833H5.83333C6.17851 6.45833 6.45833 6.73816 6.45833 7.08333C6.45833 7.42851 6.17851 7.70833 5.83333 7.70833H2.5C2.15482 7.70833 1.875 7.42851 1.875 7.08333V3.75C1.875 3.40482 2.15482 3.125 2.5 3.125Z" fill="#898989"/>
</svg>
