<svg width="30" height="30" viewBox="0 0 30 30" fill="none" xmlns="http://www.w3.org/2000/svg">
<circle cx="15" cy="15" r="15" fill="#DFDFDF"/>
<path d="M9.00023 13.7009C8.99992 13.6089 9.01731 13.5177 9.05138 13.4327C9.08546 13.3476 9.13555 13.2703 9.19877 13.2053C9.32704 13.075 9.49999 13.0019 9.68018 13.0019C9.86038 13.0019 10.0333 13.075 10.1616 13.2053L15.1198 18.321L20.078 13.2053C20.2057 13.0738 20.3789 13 20.5594 13C20.74 13 20.9132 13.0738 21.0408 13.2053C21.1685 13.3367 21.2402 13.515 21.2402 13.7009C21.2402 13.8868 21.1685 14.0651 21.0408 14.1965L15.6012 19.7966C15.4729 19.9269 15.3 20 15.1198 20C14.9396 20 14.7667 19.9269 14.6384 19.7966L9.19877 14.1965C9.13555 14.1315 9.08546 14.0542 9.05138 13.9691C9.01731 13.8841 8.99992 13.7929 9.00023 13.7009V13.7009Z" fill="#454545"/>
</svg>
