<svg width="56" height="56" viewBox="0 0 56 56" fill="none" xmlns="http://www.w3.org/2000/svg">
<circle cx="28" cy="28" r="28" fill="#6B63F6"/>
<path d="M24.9385 32.7617V33.0957H29.2803V32.7617C29.3174 29.9785 30.208 28.6982 32.3604 27.3809C34.7725 25.9521 36.2754 23.9854 36.2939 20.9609C36.2754 16.5449 32.8428 13.7617 27.833 13.7617C23.25 13.7617 19.5391 16.3037 19.4092 21.2949H24.0479C24.1777 18.8086 25.959 17.6211 27.7959 17.6211C29.8184 17.6211 31.4512 18.957 31.4326 21.0352C31.4512 22.8906 30.2266 24.1338 28.6494 25.1543C26.3115 26.583 24.9756 28.0303 24.9385 32.7617ZM24.3447 38.4023C24.3262 39.998 25.6436 41.2969 27.2393 41.2969C28.7793 41.2969 30.0967 39.998 30.0967 38.4023C30.0967 36.8438 28.7793 35.5635 27.2393 35.5449C25.6436 35.5635 24.3262 36.8438 24.3447 38.4023Z" fill="white"/>
</svg>
