<svg width="28" height="28" viewBox="0 0 28 28" fill="none" xmlns="http://www.w3.org/2000/svg">
<circle cx="14" cy="14" r="14" fill="#F7C031"/>
<path d="M12.3398 17.0107V17.1221H14.2324V17.0107C14.2603 15.4985 14.6963 14.8306 15.8096 14.1533C16.9878 13.4297 17.7021 12.437 17.7021 10.9434C17.7021 8.82812 16.0879 7.38086 13.6758 7.38086C11.4678 7.38086 9.68652 8.67041 9.6123 11.0361H11.6162C11.6997 9.66309 12.6738 9.05078 13.6758 9.05078C14.7891 9.05078 15.6797 9.78369 15.6797 10.9434C15.6797 11.9175 15.0859 12.604 14.3066 13.0771C13.082 13.8379 12.3677 14.5801 12.3398 17.0107ZM12.043 19.8125C12.0337 20.5361 12.6367 21.1206 13.3604 21.1299C14.0747 21.1206 14.6685 20.5361 14.6777 19.8125C14.6685 19.0889 14.0747 18.4951 13.3604 18.4951C12.6367 18.4951 12.0337 19.0889 12.043 19.8125Z" fill="white"/>
</svg>
